<svg id="Capa_1" enable-background="new 0 0 565.648 565.648" height="512" viewBox="0 0 565.648 565.648" width="512" xmlns="http://www.w3.org/2000/svg"><path id="path-1" d="m201.764 293.179c13.806 13.806 13.806 36.191 0 49.997s-36.191 13.806-49.997 0-13.806-36.191 0-49.997 36.191-13.806 49.997 0" transform="translate(3.902 7.902)"/><path id="path-1_1_" d="m413.882 293.179c13.806 13.806 13.806 36.191 0 49.997s-36.191 13.806-49.997 0-13.806-36.191 0-49.997 36.191-13.806 49.997 0" transform="translate(9.902 7.902)"/><path d="m530.295 70.706h-494.942c-19.524 0-35.353 15.829-35.353 35.353v353.53c0 19.524 15.829 35.353 35.353 35.353h494.942c19.524 0 35.353-15.829 35.353-35.353v-353.53c0-19.524-15.829-35.353-35.353-35.353zm-56.067 70.706-49.991 70.706h-282.825l-50.007-70.706h382.824zm-85.345 247.471h-212.118c-38.995 0-70.706-31.711-70.706-70.706s31.711-70.706 70.706-70.706 70.706 31.711 70.706 70.706c0 12.936-3.744 24.912-9.833 35.353h90.372c-6.089-10.441-9.833-22.417-9.833-35.353 0-38.995 31.711-70.706 70.706-70.706s70.706 31.711 70.706 70.706c0 38.996-31.711 70.706-70.706 70.706z"/></svg>